<svg xmlns="http://www.w3.org/2000/svg" width="1138" height="358" viewBox="-14 -4 1138 358" font-family="Helvetica,Arial,sans-serif">
<defs><marker id="ah" markerWidth="9" markerHeight="7" refX="8.5" refY="3.5" orient="auto"><polygon points="0 0, 9 3.5, 0 7" fill="#000000"/></marker><marker id="ahs" markerWidth="9" markerHeight="7" refX="0.5" refY="3.5" orient="auto"><polygon points="9 0, 0 3.5, 9 7" fill="#000000"/></marker></defs>
<rect x="-14" y="-4" width="1138" height="358" fill="#ffffff"/>
<rect x="10" y="150" width="110" height="60" rx="3" fill="#ffffff" stroke="#000000" stroke-width="1.4"/>
<rect x="10" y="30" width="110" height="50" rx="3" fill="#ffffff" stroke="#000000" stroke-width="1.4"/>
<rect x="170" y="20" width="640" height="310" rx="3" fill="none" stroke="#000000" stroke-width="1.4" stroke-dasharray="6 4"/>
<rect x="190" y="55" width="500" height="255" rx="3" fill="none" stroke="#000000" stroke-width="1.4" stroke-dasharray="6 4"/>
<rect x="210" y="100" width="120" height="180" rx="3" fill="#ffffff" stroke="#000000" stroke-width="1.4"/>
<rect x="370" y="100" width="140" height="70" rx="3" fill="#ffffff" stroke="#000000" stroke-width="1.4"/>
<rect x="370" y="200" width="140" height="80" rx="3" fill="#ffffff" stroke="#000000" stroke-width="1.4"/>
<rect x="550" y="100" width="120" height="50" rx="3" fill="#ffffff" stroke="#000000" stroke-width="1.4"/>
<rect x="710" y="200" width="80" height="80" rx="3" fill="#ffffff" stroke="#000000" stroke-width="1.4"/>
<rect x="850" y="200" width="110" height="80" rx="3" fill="#ffffff" stroke="#000000" stroke-width="1.4"/>
<rect x="850" y="100" width="110" height="40" rx="3" fill="#ffffff" stroke="#000000" stroke-width="1.4"/>
<rect x="1000" y="200" width="100" height="80" rx="3" fill="#ffffff" stroke="#000000" stroke-width="1.4"/>
<polyline points="120.0,180.0 165.0,180.0 165.0,160.0 210.0,160.0" fill="none" stroke="#000000" stroke-width="1.4" marker-end="url(#ah)" marker-start="url(#ahs)"/>
<rect x="153.0" y="162.0" width="24.0" height="14" fill="#ffffff"/>
<text x="165.0" y="173.0" font-size="10" fill="#000000" text-anchor="middle">APB</text>
<polyline points="120.0,55.0 145.0,55.0 145.0,51.0 170.0,51.0" fill="none" stroke="#000000" stroke-width="1.4" marker-end="url(#ah)"/>
<rect x="115.0" y="45.0" width="60.0" height="14" fill="#ffffff"/>
<text x="145.0" y="56.0" font-size="10" fill="#000000" text-anchor="middle">o_clk_i2c</text>
<polyline points="330.0,136.0 350.0,136.0 350.0,135.0 370.0,135.0" fill="none" stroke="#000000" stroke-width="1.4" marker-end="url(#ah)"/>
<polyline points="440.0,170.0 440.0,200.0" fill="none" stroke="#000000" stroke-width="1.4" marker-end="url(#ah)"/>
<polyline points="330.0,118.0 440.0,118.0 440.0,115.0 550.0,115.0" fill="none" stroke="#000000" stroke-width="1.4" marker-end="url(#ah)"/>
<polyline points="670.0,125.0 760.0,125.0 760.0,120.0 850.0,120.0" fill="none" stroke="#000000" stroke-width="1.4" marker-end="url(#ah)"/>
<rect x="730.0" y="114.5" width="60.0" height="14" fill="#ffffff"/>
<text x="760.0" y="125.5" font-size="10" fill="#000000" text-anchor="middle">o_int_i2c</text>
<polyline points="510.0,240.0 710.0,240.0" fill="none" stroke="#000000" stroke-width="1.4" marker-end="url(#ah)"/>
<rect x="565.0" y="232.0" width="90.0" height="14" fill="#ffffff"/>
<text x="610.0" y="243.0" font-size="10" fill="#000000" text-anchor="middle">scl/sda_padoen</text>
<polyline points="790.0,224.0 850.0,224.0" fill="none" stroke="#000000" stroke-width="1.4" marker-end="url(#ah)"/>
<rect x="787.0" y="216.0" width="66.0" height="14" fill="#ffffff"/>
<text x="820.0" y="227.0" font-size="10" fill="#000000" text-anchor="middle">o_pad_*_oe</text>
<polyline points="850.0,256.0 790.0,256.0" fill="none" stroke="#000000" stroke-width="1.4" marker-end="url(#ah)"/>
<rect x="796.0" y="248.0" width="48.0" height="14" fill="#ffffff"/>
<text x="820.0" y="259.0" font-size="10" fill="#000000" text-anchor="middle">i_pad_*</text>
<polyline points="960.0,240.0 1000.0,240.0" fill="none" stroke="#000000" stroke-width="1.4" marker-end="url(#ah)" marker-start="url(#ahs)"/>
<text x="65.0" y="176.8" font-size="10" text-anchor="middle" fill="#000000" font-weight="bold">P_BUS</text>
<text x="65.0" y="189.8" font-size="10" text-anchor="middle" fill="#000000" font-weight="bold">APB_M11</text>
<text x="65.0" y="58.3" font-size="10" text-anchor="middle" fill="#000000">SCRC</text>
<text x="490.0" y="38.0" font-size="12" text-anchor="middle" fill="#000000" font-weight="bold">m_qnsc_wrap_i2c</text>
<text x="440.0" y="71.0" font-size="10" text-anchor="middle" fill="#000000">apb_i2c  (upstream, unmodified)</text>
<text x="270.0" y="173.8" font-size="10" text-anchor="middle" fill="#000000" font-weight="bold">APB registers</text>
<text x="270.0" y="186.8" font-size="10" text-anchor="middle" fill="#000000" font-weight="bold">PRER CTRL</text>
<text x="270.0" y="199.8" font-size="10" text-anchor="middle" fill="#000000" font-weight="bold">TX RX CMD</text>
<text x="270.0" y="212.8" font-size="10" text-anchor="middle" fill="#000000" font-weight="bold">STATUS</text>
<text x="440.0" y="131.8" font-size="10" text-anchor="middle" fill="#000000">byte controller</text>
<text x="440.0" y="144.8" font-size="10" text-anchor="middle" fill="#000000">shift, ACK</text>
<text x="440.0" y="230.3" font-size="10" text-anchor="middle" fill="#000000">bit controller</text>
<text x="440.0" y="243.3" font-size="10" text-anchor="middle" fill="#000000">SCL gen, filter</text>
<text x="440.0" y="256.3" font-size="10" text-anchor="middle" fill="#000000">START/STOP, AL</text>
<text x="610.0" y="121.8" font-size="10" text-anchor="middle" fill="#000000">irq_flag</text>
<text x="610.0" y="134.8" font-size="10" text-anchor="middle" fill="#000000">(sticky)</text>
<text x="750.0" y="230.3" font-size="10" text-anchor="middle" fill="#000000">oe =</text>
<text x="750.0" y="243.3" font-size="10" text-anchor="middle" fill="#000000">NOT</text>
<text x="750.0" y="256.3" font-size="10" text-anchor="middle" fill="#000000">padoen</text>
<text x="905.0" y="230.3" font-size="10" text-anchor="middle" fill="#000000">IO MUX</text>
<text x="905.0" y="243.3" font-size="10" text-anchor="middle" fill="#000000">open-drain</text>
<text x="905.0" y="256.3" font-size="10" text-anchor="middle" fill="#000000">pads</text>
<text x="905.0" y="116.8" font-size="10" text-anchor="middle" fill="#000000">INTMAP</text>
<text x="905.0" y="129.8" font-size="10" text-anchor="middle" fill="#000000">line 3</text>
<text x="1050.0" y="230.3" font-size="10" text-anchor="middle" fill="#000000">SCL, SDA</text>
<text x="1050.0" y="243.3" font-size="10" text-anchor="middle" fill="#000000">pull-ups</text>
<text x="1050.0" y="256.3" font-size="10" text-anchor="middle" fill="#000000">(board)</text>
</svg>