<svg xmlns="http://www.w3.org/2000/svg" width="934" height="258" viewBox="0 0 934 258" font-family="Helvetica,Arial,sans-serif"><rect width="934" height="258" fill="#fff"/><text x="140" y="70.0" font-size="12" font-weight="bold" text-anchor="end" font-family="Courier New,monospace">CONF</text><text x="906.0" y="14" font-size="9" text-anchor="middle">0</text><text x="882.0" y="14" font-size="9" text-anchor="middle">1</text><text x="858.0" y="14" font-size="9" text-anchor="middle">2</text><text x="834.0" y="14" font-size="9" text-anchor="middle">3</text><text x="810.0" y="14" font-size="9" text-anchor="middle">4</text><text x="786.0" y="14" font-size="9" text-anchor="middle">5</text><text x="762.0" y="14" font-size="9" text-anchor="middle">6</text><text x="738.0" y="14" font-size="9" text-anchor="middle">7</text><text x="714.0" y="14" font-size="9" text-anchor="middle">8</text><text x="690.0" y="14" font-size="9" text-anchor="middle">9</text><text x="666.0" y="14" font-size="9" text-anchor="middle">10</text><text x="642.0" y="14" font-size="9" text-anchor="middle">11</text><text x="618.0" y="14" font-size="9" text-anchor="middle">12</text><text x="594.0" y="14" font-size="9" text-anchor="middle">13</text><text x="570.0" y="14" font-size="9" text-anchor="middle">14</text><text x="546.0" y="14" font-size="9" text-anchor="middle">15</text><text x="522.0" y="14" font-size="9" text-anchor="middle">16</text><text x="498.0" y="14" font-size="9" text-anchor="middle">17</text><text x="474.0" y="14" font-size="9" text-anchor="middle">18</text><text x="450.0" y="14" font-size="9" text-anchor="middle">19</text><text x="426.0" y="14" font-size="9" text-anchor="middle">20</text><text x="402.0" y="14" font-size="9" text-anchor="middle">21</text><text x="378.0" y="14" font-size="9" text-anchor="middle">22</text><text x="354.0" y="14" font-size="9" text-anchor="middle">23</text><text x="330.0" y="14" font-size="9" text-anchor="middle">24</text><text x="306.0" y="14" font-size="9" text-anchor="middle">25</text><text x="282.0" y="14" font-size="9" text-anchor="middle">26</text><text x="258.0" y="14" font-size="9" text-anchor="middle">27</text><text x="234.0" y="14" font-size="9" text-anchor="middle">28</text><text x="210.0" y="14" font-size="9" text-anchor="middle">29</text><text x="186.0" y="14" font-size="9" text-anchor="middle">30</text><text x="162.0" y="14" font-size="9" text-anchor="middle">31</text><rect x="894" y="18" width="24" height="96" fill="#ffffff" stroke="#000" stroke-width="1.2"/><text x="910.0" y="66.0" font-size="10" text-anchor="middle" transform="rotate(-90 910.0 66.0)">decouple_aw</text><rect x="870" y="18" width="24" height="96" fill="#ffffff" stroke="#000" stroke-width="1.2"/><text x="886.0" y="66.0" font-size="10" text-anchor="middle" transform="rotate(-90 886.0 66.0)">decouple_rw</text><rect x="846" y="18" width="24" height="96" fill="#ffffff" stroke="#000" stroke-width="1.2"/><text x="862.0" y="66.0" font-size="10" text-anchor="middle" transform="rotate(-90 862.0 66.0)">src_reduce_len</text><rect x="822" y="18" width="24" height="96" fill="#ffffff" stroke="#000" stroke-width="1.2"/><text x="838.0" y="66.0" font-size="10" text-anchor="middle" transform="rotate(-90 838.0 66.0)">dst_reduce_len</text><rect x="750" y="18" width="72" height="96" fill="#ffffff" stroke="#000" stroke-width="1.2"/><text x="786.0" y="70.0" font-size="10.5" text-anchor="middle">src_max_llen</text><rect x="678" y="18" width="72" height="96" fill="#ffffff" stroke="#000" stroke-width="1.2"/><text x="714.0" y="70.0" font-size="10.5" text-anchor="middle">dst_max_llen</text><rect x="630" y="18" width="48" height="96" fill="#ffffff" stroke="#000" stroke-width="1.2"/><text x="654.0" y="70.0" font-size="10.5" text-anchor="middle">enable_nd</text><rect x="558" y="18" width="72" height="96" fill="#ffffff" stroke="#000" stroke-width="1.2"/><text x="594.0" y="70.0" font-size="10.5" text-anchor="middle">src_prot</text><rect x="486" y="18" width="72" height="96" fill="#ffffff" stroke="#000" stroke-width="1.2"/><text x="522.0" y="70.0" font-size="10.5" text-anchor="middle">dst_prot</text><rect x="150" y="18" width="336" height="96" fill="#e6e6e6" stroke="#000" stroke-width="1.2"/><text x="140" y="200.0" font-size="12" font-weight="bold" text-anchor="end" font-family="Courier New,monospace">STATUS</text><text x="906.0" y="144" font-size="9" text-anchor="middle">0</text><text x="882.0" y="144" font-size="9" text-anchor="middle">1</text><text x="858.0" y="144" font-size="9" text-anchor="middle">2</text><text x="834.0" y="144" font-size="9" text-anchor="middle">3</text><text x="810.0" y="144" font-size="9" text-anchor="middle">4</text><text x="786.0" y="144" font-size="9" text-anchor="middle">5</text><text x="762.0" y="144" font-size="9" text-anchor="middle">6</text><text x="738.0" y="144" font-size="9" text-anchor="middle">7</text><text x="714.0" y="144" font-size="9" text-anchor="middle">8</text><text x="690.0" y="144" font-size="9" text-anchor="middle">9</text><text x="666.0" y="144" font-size="9" text-anchor="middle">10</text><text x="642.0" y="144" font-size="9" text-anchor="middle">11</text><text x="618.0" y="144" font-size="9" text-anchor="middle">12</text><text x="594.0" y="144" font-size="9" text-anchor="middle">13</text><text x="570.0" y="144" font-size="9" text-anchor="middle">14</text><text x="546.0" y="144" font-size="9" text-anchor="middle">15</text><text x="522.0" y="144" font-size="9" text-anchor="middle">16</text><text x="498.0" y="144" font-size="9" text-anchor="middle">17</text><text x="474.0" y="144" font-size="9" text-anchor="middle">18</text><text x="450.0" y="144" font-size="9" text-anchor="middle">19</text><text x="426.0" y="144" font-size="9" text-anchor="middle">20</text><text x="402.0" y="144" font-size="9" text-anchor="middle">21</text><text x="378.0" y="144" font-size="9" text-anchor="middle">22</text><text x="354.0" y="144" font-size="9" text-anchor="middle">23</text><text x="330.0" y="144" font-size="9" text-anchor="middle">24</text><text x="306.0" y="144" font-size="9" text-anchor="middle">25</text><text x="282.0" y="144" font-size="9" text-anchor="middle">26</text><text x="258.0" y="144" font-size="9" text-anchor="middle">27</text><text x="234.0" y="144" font-size="9" text-anchor="middle">28</text><text x="210.0" y="144" font-size="9" text-anchor="middle">29</text><text x="186.0" y="144" font-size="9" text-anchor="middle">30</text><text x="162.0" y="144" font-size="9" text-anchor="middle">31</text><rect x="726" y="148" width="192" height="96" fill="#ffffff" stroke="#000" stroke-width="1.2"/><text x="822.0" y="200.0" font-size="10.5" text-anchor="middle">backend busy</text><rect x="702" y="148" width="24" height="96" fill="#ffffff" stroke="#000" stroke-width="1.2"/><text x="718.0" y="196.0" font-size="10" text-anchor="middle" transform="rotate(-90 718.0 196.0)">midend</text><rect x="150" y="148" width="552" height="96" fill="#e6e6e6" stroke="#000" stroke-width="1.2"/></svg>