<svg xmlns="http://www.w3.org/2000/svg" width="580" height="132" viewBox="0 -4 580 136" font-family="Helvetica,Arial,sans-serif"><defs><marker id="ae" markerWidth="8" markerHeight="6" refX="8" refY="3" orient="auto"><polygon points="0 0,8 3,0 6"/></marker><marker id="as" markerWidth="8" markerHeight="6" refX="0" refY="3" orient="auto"><polygon points="8 0,0 3,8 6"/></marker></defs><rect x="0" y="-4" width="580" height="136" fill="#fff"/><text x="158" y="41" font-size="12" text-anchor="end" font-family="Courier New,monospace">SDA (bus)</text><polygon points="170,37.0 174,28 196,28 200,37.0 196,46 174,46" fill="#fff" stroke="#000" stroke-width="1.3"/><text x="185.0" y="41.0" font-size="10.5" text-anchor="middle" font-family="Courier New,monospace">idle</text><polygon points="200,37.0 204,28 226,28 230,37.0 226,46 204,46" fill="#fff" stroke="#000" stroke-width="1.3"/><text x="215.0" y="41.0" font-size="10.5" text-anchor="middle" font-family="Courier New,monospace">S</text><polygon points="230,37.0 234,28 316,28 320,37.0 316,46 234,46" fill="#fff" stroke="#000" stroke-width="1.3"/><text x="275.0" y="41.0" font-size="10.5" text-anchor="middle" font-family="Courier New,monospace">addr[6:0]</text><polygon points="320,37.0 324,28 346,28 350,37.0 346,46 324,46" fill="#fff" stroke="#000" stroke-width="1.3"/><text x="335.0" y="41.0" font-size="10.5" text-anchor="middle" font-family="Courier New,monospace">W</text><polygon points="350,37.0 354,28 376,28 380,37.0 376,46 354,46" fill="#fff" stroke="#000" stroke-width="1.3"/><text x="365.0" y="41.0" font-size="10.5" text-anchor="middle" font-family="Courier New,monospace">ACK</text><polygon points="380,37.0 384,28 466,28 470,37.0 466,46 384,46" fill="#fff" stroke="#000" stroke-width="1.3"/><text x="425.0" y="41.0" font-size="10.5" text-anchor="middle" font-family="Courier New,monospace">data[7:0]</text><polygon points="470,37.0 474,28 496,28 500,37.0 496,46 474,46" fill="#fff" stroke="#000" stroke-width="1.3"/><text x="485.0" y="41.0" font-size="10.5" text-anchor="middle" font-family="Courier New,monospace">ACK</text><polygon points="500,37.0 504,28 526,28 530,37.0 526,46 504,46" fill="#fff" stroke="#000" stroke-width="1.3"/><text x="515.0" y="41.0" font-size="10.5" text-anchor="middle" font-family="Courier New,monospace">P</text><polygon points="530,37.0 534,28 556,28 560,37.0 556,46 534,46" fill="#fff" stroke="#000" stroke-width="1.3"/><text x="545.0" y="41.0" font-size="10.5" text-anchor="middle" font-family="Courier New,monospace">idle</text><text x="158" y="75" font-size="12" text-anchor="end" font-family="Courier New,monospace">master drives</text><polygon points="170,71.0 174,62 196,62 200,71.0 196,80 174,80" fill="#fff" stroke="#000" stroke-width="1.3"/><text x="185.0" y="75.0" font-size="10.5" text-anchor="middle" font-family="Courier New,monospace">--</text><polygon points="200,71.0 204,62 226,62 230,71.0 226,80 204,80" fill="#fff" stroke="#000" stroke-width="1.3"/><text x="215.0" y="75.0" font-size="10.5" text-anchor="middle" font-family="Courier New,monospace">STA|WR</text><polygon points="230,71.0 234,62 346,62 350,71.0 346,80 234,80" fill="#fff" stroke="#000" stroke-width="1.3"/><text x="290.0" y="75.0" font-size="10.5" text-anchor="middle" font-family="Courier New,monospace">addr, W</text><polygon points="350,71.0 354,62 376,62 380,71.0 376,80 354,80" fill="#fff" stroke="#000" stroke-width="1.3"/><text x="365.0" y="75.0" font-size="10.5" text-anchor="middle" font-family="Courier New,monospace">slave</text><polygon points="380,71.0 384,62 466,62 470,71.0 466,80 384,80" fill="#fff" stroke="#000" stroke-width="1.3"/><text x="425.0" y="75.0" font-size="10.5" text-anchor="middle" font-family="Courier New,monospace">WR|STO</text><polygon points="470,71.0 474,62 496,62 500,71.0 496,80 474,80" fill="#fff" stroke="#000" stroke-width="1.3"/><text x="485.0" y="75.0" font-size="10.5" text-anchor="middle" font-family="Courier New,monospace">slave</text><polygon points="500,71.0 504,62 556,62 560,71.0 556,80 504,80" fill="#fff" stroke="#000" stroke-width="1.3"/><text x="530.0" y="75.0" font-size="10.5" text-anchor="middle" font-family="Courier New,monospace">--</text><text x="158" y="109" font-size="12" text-anchor="end" font-family="Courier New,monospace">irq_flag</text><polyline points="170.0,114.0 200.0,114.0 200.0,114.0 230.0,114.0 230.0,114.0 260.0,114.0 260.0,114.0 290.0,114.0 290.0,114.0 320.0,114.0 320.0,114.0 350.0,114.0 350.0,114.0 350.0,96.0 380.0,96.0 380.0,96.0 380.0,114.0 410.0,114.0 410.0,114.0 440.0,114.0 440.0,114.0 470.0,114.0 470.0,114.0 500.0,114.0 500.0,114.0 500.0,96.0 530.0,96.0 530.0,96.0 530.0,114.0 560.0,114.0" fill="none" stroke="#000" stroke-width="1.3"/><line x1="200" y1="14" x2="200" y2="126" stroke="#000" stroke-width="0.8" stroke-dasharray="3 3"/><text x="200" y="11" font-size="11" text-anchor="middle">CMD = STA|WR</text><line x1="380" y1="14" x2="380" y2="126" stroke="#000" stroke-width="0.8" stroke-dasharray="3 3"/><text x="380" y="11" font-size="11" text-anchor="middle">CMD = WR|STO</text></svg>