<svg xmlns="http://www.w3.org/2000/svg" width="1328" height="544" viewBox="-14 16 1328 544" font-family="Helvetica,Arial,sans-serif">
<defs><marker id="ah" markerWidth="9" markerHeight="7" refX="8.5" refY="3.5" orient="auto"><polygon points="0 0, 9 3.5, 0 7" fill="#000000"/></marker><marker id="ahs" markerWidth="9" markerHeight="7" refX="0.5" refY="3.5" orient="auto"><polygon points="9 0, 0 3.5, 9 7" fill="#000000"/></marker></defs>
<rect x="-14" y="16" width="1328" height="544" fill="#ffffff"/>
<rect x="10" y="40" width="130" height="350" rx="3" fill="none" stroke="#000000" stroke-width="1.4" stroke-dasharray="6 4"/>
<rect x="20" y="80" width="110" height="44" rx="3" fill="#ffffff" stroke="#000000" stroke-width="1.4"/>
<rect x="20" y="145" width="110" height="44" rx="3" fill="#ffffff" stroke="#000000" stroke-width="1.4"/>
<rect x="20" y="210" width="110" height="44" rx="3" fill="#ffffff" stroke="#000000" stroke-width="1.4"/>
<rect x="20" y="275" width="110" height="44" rx="3" fill="#ffffff" stroke="#000000" stroke-width="1.4"/>
<rect x="20" y="340" width="110" height="44" rx="3" fill="#ffffff" stroke="#000000" stroke-width="1.4"/>
<rect x="180" y="40" width="760" height="400" rx="3" fill="none" stroke="#000000" stroke-width="1.4" stroke-dasharray="6 4"/>
<rect x="210" y="80" width="170" height="44" rx="3" fill="#ffffff" stroke="#000000" stroke-width="1.4"/>
<rect x="210" y="210" width="170" height="44" rx="3" fill="#ffffff" stroke="#000000" stroke-width="1.4"/>
<rect x="410" y="80" width="150" height="44" rx="3" fill="#ffffff" stroke="#000000" stroke-width="1.4"/>
<rect x="410" y="145" width="150" height="44" rx="3" fill="#ffffff" stroke="#000000" stroke-width="1.4"/>
<rect x="410" y="210" width="150" height="44" rx="3" fill="#ffffff" stroke="#000000" stroke-width="1.4"/>
<rect x="410" y="275" width="150" height="44" rx="3" fill="#ffffff" stroke="#000000" stroke-width="1.4"/>
<rect x="410" y="340" width="150" height="44" rx="3" fill="#ffffff" stroke="#000000" stroke-width="1.4"/>
<rect x="610" y="90" width="150" height="150" rx="3" fill="#ffffff" stroke="#000000" stroke-width="1.4"/>
<rect x="610" y="270" width="300" height="100" rx="3" fill="#ffffff" stroke="#000000" stroke-width="1.4"/>
<rect x="990" y="270" width="170" height="100" rx="3" fill="#ffffff" stroke="#000000" stroke-width="1.4"/>
<rect x="180" y="470" width="760" height="66" rx="3" fill="#ffffff" stroke="#000000" stroke-width="2.8"/>
<rect x="990" y="400" width="300" height="136" rx="3" fill="#ffffff" stroke="#000000" stroke-width="1.4"/>
<polyline points="130.0,102.0 210.0,102.0" fill="none" stroke="#000000" stroke-width="1.4" marker-end="url(#ah)"/>
<polyline points="130.0,232.0 210.0,232.0" fill="none" stroke="#000000" stroke-width="1.4" marker-end="url(#ah)"/>
<polyline points="130.0,167.0 410.0,167.0" fill="none" stroke="#000000" stroke-width="1.4" marker-end="url(#ah)"/>
<polyline points="410.0,297.0 130.0,297.0" fill="none" stroke="#000000" stroke-width="1.4" marker-end="url(#ah)"/>
<polyline points="410.0,362.0 130.0,362.0" fill="none" stroke="#000000" stroke-width="1.4" marker-end="url(#ah)"/>
<polyline points="380.0,102.0 410.0,102.0" fill="none" stroke="#000000" stroke-width="1.4" marker-end="url(#ah)"/>
<polyline points="380.0,232.0 410.0,232.0" fill="none" stroke="#000000" stroke-width="1.4" marker-end="url(#ah)"/>
<polyline points="560.0,102.0 585.0,102.0 585.0,105.0 610.0,105.0" fill="none" stroke="#000000" stroke-width="1.4" marker-end="url(#ah)"/>
<polyline points="560.0,167.0 585.0,167.0 585.0,183.0 610.0,183.0" fill="none" stroke="#000000" stroke-width="1.4" marker-end="url(#ah)"/>
<polyline points="560.0,232.0 585.0,232.0 585.0,228.0 610.0,228.0" fill="none" stroke="#000000" stroke-width="1.4" marker-end="url(#ah)"/>
<polyline points="632.5,240.0 632.5,255.0 655.0,255.0 655.0,270.0" fill="none" stroke="#000000" stroke-width="1.4" marker-end="url(#ah)"/>
<polyline points="610.0,295.0 585.0,295.0 585.0,297.0 560.0,297.0" fill="none" stroke="#000000" stroke-width="1.4" marker-end="url(#ah)"/>
<polyline points="610.0,345.0 585.0,345.0 585.0,362.0 560.0,362.0" fill="none" stroke="#000000" stroke-width="1.4" marker-end="url(#ah)"/>
<polyline points="910.0,300.0 990.0,300.0" fill="none" stroke="#000000" stroke-width="1.4" marker-end="url(#ah)"/>
<rect x="890.0" y="292.0" width="120.0" height="14" fill="#ffffff"/>
<text x="950.0" y="303.0" font-size="10" fill="#000000" text-anchor="middle">addr, wdata, we, oe</text>
<polyline points="990.0,345.0 910.0,345.0" fill="none" stroke="#000000" stroke-width="1.4" marker-end="url(#ah)"/>
<rect x="932.0" y="337.0" width="36.0" height="14" fill="#ffffff"/>
<text x="950.0" y="348.0" font-size="10" fill="#000000" text-anchor="middle">rdata</text>
<text x="75.0" y="57.0" font-size="11" text-anchor="middle" fill="#000000" font-weight="bold">S_BUS | AXI_M1</text>
<text x="75.0" y="105.7" font-size="11" text-anchor="middle" fill="#000000" font-weight="bold">AW</text>
<text x="75.0" y="170.7" font-size="11" text-anchor="middle" fill="#000000" font-weight="bold">W</text>
<text x="75.0" y="235.7" font-size="11" text-anchor="middle" fill="#000000" font-weight="bold">AR</text>
<text x="75.0" y="300.7" font-size="11" text-anchor="middle" fill="#000000" font-weight="bold">R</text>
<text x="75.0" y="365.7" font-size="11" text-anchor="middle" fill="#000000" font-weight="bold">B</text>
<text x="560.0" y="58.0" font-size="12" text-anchor="middle" fill="#000000" font-weight="bold">SRAM controller  |  m_vlsi_axi4_sram</text>
<text x="295.0" y="105.3" font-size="10" text-anchor="middle" fill="#000000">u_axfsm_wr</text>
<text x="295.0" y="235.3" font-size="10" text-anchor="middle" fill="#000000">u_axfsm_rd</text>
<text x="485.0" y="105.3" font-size="10" text-anchor="middle" fill="#000000">AWFIFO</text>
<text x="485.0" y="170.3" font-size="10" text-anchor="middle" fill="#000000">WFIFO</text>
<text x="485.0" y="235.3" font-size="10" text-anchor="middle" fill="#000000">ARFIFO</text>
<text x="485.0" y="300.3" font-size="10" text-anchor="middle" fill="#000000">RFIFO</text>
<text x="485.0" y="365.3" font-size="10" text-anchor="middle" fill="#000000">BFIFO</text>
<text x="685.0" y="155.3" font-size="10" text-anchor="middle" fill="#000000">u_arbiter</text>
<text x="685.0" y="168.3" font-size="10" text-anchor="middle" fill="#000000">round-robin</text>
<text x="685.0" y="181.3" font-size="10" text-anchor="middle" fill="#000000">W / R grant</text>
<text x="760.0" y="310.3" font-size="10" text-anchor="middle" fill="#000000">u_sram_misc</text>
<text x="760.0" y="323.3" font-size="10" text-anchor="middle" fill="#000000">FIFO pop · SRAM mux</text>
<text x="760.0" y="336.3" font-size="10" text-anchor="middle" fill="#000000">R and B generation</text>
<text x="1075.0" y="309.7" font-size="11" text-anchor="middle" fill="#000000" font-weight="bold">SRAM macro</text>
<text x="1075.0" y="323.7" font-size="11" text-anchor="middle" fill="#000000" font-weight="bold">single port</text>
<text x="1075.0" y="337.7" font-size="11" text-anchor="middle" fill="#000000" font-weight="bold">1-cycle read</text>
<text x="560.0" y="499.8" font-size="10" text-anchor="middle" fill="#000000">ADDED FOR QSOC | WSTRB byte-enable path: AW and W channels, an extra FIFO field,</text>
<text x="560.0" y="512.8" font-size="10" text-anchor="middle" fill="#000000">and byte write enables on the macro.  Without it a byte store overwrites the whole word.</text>
<text x="1140.0" y="416.0" font-size="10" text-anchor="middle" fill="#000000">Burst address generation</text>
<text x="1140.0" y="429.0" font-size="10" text-anchor="middle" fill="#000000">lives in the two AXFSMs.</text>
<text x="1140.0" y="442.0" font-size="10" text-anchor="middle" fill="#000000"></text>
<text x="1140.0" y="455.0" font-size="10" text-anchor="middle" fill="#000000">Constrain masters to INCR</text>
<text x="1140.0" y="468.0" font-size="10" text-anchor="middle" fill="#000000">and FIXED: the WRAP path</text>
<text x="1140.0" y="481.0" font-size="10" text-anchor="middle" fill="#000000">aligns but never wraps.</text>
</svg>